<svg width="1023" height="222" viewBox="0 0 1023 222" fill="none" xmlns="http://www.w3.org/2000/svg">
<path d="M0.500002 2.7H70.4C90.8 2.7 109.4 6.8 126.2 15C143 23 156.3 35.2 166.1 51.6C176.1 67.8 181.1 87.5 181.1 110.7C181.1 134.1 176.1 154 166.1 170.4C156.3 186.6 143 198.8 126.2 207C109.4 215 90.8 219 70.4 219H0.500002V2.7ZM67.1 183.6C80.3 183.6 92.4 181.2 103.4 176.4C114.4 171.4 123.3 163.5 130.1 152.7C136.9 141.7 140.3 127.7 140.3 110.7C140.3 93.9 136.9 80.1 130.1 69.3C123.3 58.3 114.4 50.4 103.4 45.6C92.4 40.6 80.3 38.1 67.1 38.1H40.7V183.6H67.1ZM204.266 2.7H347.666V38.1H244.466V87H327.266V122.1H244.466V183.6H350.966V219H204.266V2.7ZM444.882 221.1C429.082 221.1 414.882 218.1 402.282 212.1C389.682 205.9 379.582 197.1 371.982 185.7C364.382 174.3 360.182 161 359.382 145.8H398.982C399.582 153.4 401.982 160.3 406.182 166.5C410.382 172.5 415.882 177.3 422.682 180.9C429.482 184.3 436.882 186 444.882 186C452.482 186 459.182 184.9 464.982 182.7C470.982 180.3 475.582 177 478.782 172.8C482.182 168.6 483.882 163.8 483.882 158.4C483.882 151.4 481.582 145.7 476.982 141.3C472.382 136.9 465.982 133.5 457.782 131.1L422.382 121.2C405.382 116.4 391.982 109.3 382.182 99.9C372.582 90.5 367.782 77 367.782 59.4C367.782 47.8 370.982 37.6 377.382 28.8C383.782 19.8 392.682 12.8 404.082 7.79998C415.482 2.59999 428.382 -5.72205e-06 442.782 -5.72205e-06C457.982 -5.72205e-06 471.382 2.7 482.982 8.1C494.782 13.3 504.082 20.8 510.882 30.6C517.882 40.2 521.782 51.5 522.582 64.5H482.982C481.582 56.1 477.282 49.2 470.082 43.8C463.082 38.2 453.982 35.4 442.782 35.4C432.182 35.4 423.882 37.5 417.882 41.7C411.882 45.9 408.882 51.7 408.882 59.1C408.882 65.3 410.882 70.3 414.882 74.1C419.082 77.7 425.182 80.6 433.182 82.8L468.582 92.7C479.982 96.1 489.682 100.2 497.682 105C505.882 109.8 512.382 116.5 517.182 125.1C522.182 133.5 524.682 144.3 524.682 157.5C524.682 170.1 521.382 181.3 514.782 191.1C508.182 200.7 498.882 208.1 486.882 213.3C474.882 218.5 460.882 221.1 444.882 221.1ZM547.93 2.7H588.13V219H547.93V2.7ZM553.63 183.6H582.73V219H553.63V183.6ZM553.63 2.7H582.73V38.1H553.63V2.7ZM717.031 221.4C697.431 221.4 679.631 217.3 663.631 209.1C647.631 200.7 634.831 188.2 625.231 171.6C615.831 154.8 611.131 134.5 611.131 110.7C611.131 88.5 615.831 69.1 625.231 52.5C634.831 35.7 647.731 22.8 663.931 13.8C680.131 4.79999 698.131 0.29999 717.931 0.29999C734.931 0.29999 750.331 3.39999 764.131 9.6C778.131 15.6 789.631 24.4 798.631 36C807.631 47.6 813.431 61.5 816.031 77.7H771.931C769.331 64.9 763.031 54.7 753.031 47.1C743.231 39.5 731.331 35.7 717.331 35.7C704.931 35.7 693.731 38.8 683.731 45C673.931 51 666.231 59.7 660.631 71.1C655.031 82.5 652.231 95.7 652.231 110.7C652.231 125.7 655.031 138.9 660.631 150.3C666.231 161.7 674.131 170.5 684.331 176.7C694.531 182.9 706.331 186 719.731 186C730.531 186 740.131 184 748.531 180C757.131 175.8 763.831 170.1 768.631 162.9C773.431 155.5 776.231 147.1 777.031 137.7H711.931V105H815.131V219H778.231V190.8C773.431 199.8 765.331 207.2 753.931 213C742.731 218.6 730.431 221.4 717.031 221.4ZM844.719 2.7H887.919L960.819 120.3C969.419 134.3 976.919 147.6 983.319 160.2C982.519 146 982.119 130.7 982.119 114.3V2.7H1022.02V219H978.819L905.919 102C897.319 87.8 889.819 74.5 883.419 62.1C884.419 76.1 884.919 91.4 884.919 108V219H844.719V2.7Z" fill="#171717"/>
</svg>
