<svg width="1396" height="222" viewBox="0 0 1396 222" fill="none" xmlns="http://www.w3.org/2000/svg">
<path d="M0.500002 2.7H143.9V38.1H40.7V87H123.5V122.1H40.7V183.6H147.2V219H0.500002V2.7ZM168.816 2.7H212.016L284.916 120.3C293.516 134.3 301.016 147.6 307.416 160.2C306.616 146 306.216 130.7 306.216 114.3V2.7H346.116V219H302.916L230.016 102C221.416 87.8 213.916 74.5 207.516 62.1C208.516 76.1 209.016 91.4 209.016 108V219H168.816V2.7ZM475.32 221.4C455.72 221.4 437.92 217.3 421.92 209.1C405.92 200.7 393.12 188.2 383.52 171.6C374.12 154.8 369.42 134.5 369.42 110.7C369.42 88.5 374.12 69.1 383.52 52.5C393.12 35.7 406.02 22.8 422.22 13.8C438.42 4.79999 456.42 0.29999 476.22 0.29999C493.22 0.29999 508.62 3.39999 522.42 9.6C536.42 15.6 547.92 24.4 556.92 36C565.92 47.6 571.72 61.5 574.32 77.7H530.22C527.62 64.9 521.32 54.7 511.32 47.1C501.52 39.5 489.62 35.7 475.62 35.7C463.22 35.7 452.02 38.8 442.02 45C432.22 51 424.52 59.7 418.92 71.1C413.32 82.5 410.52 95.7 410.52 110.7C410.52 125.7 413.32 138.9 418.92 150.3C424.52 161.7 432.42 170.5 442.62 176.7C452.82 182.9 464.62 186 478.02 186C488.82 186 498.42 184 506.82 180C515.42 175.8 522.12 170.1 526.92 162.9C531.72 155.5 534.52 147.1 535.32 137.7H470.22V105H573.42V219H536.52V190.8C531.72 199.8 523.62 207.2 512.22 213C501.02 218.6 488.72 221.4 475.32 221.4ZM603.008 2.7H643.208V219H603.008V2.7ZM608.708 183.6H637.808V219H608.708V183.6ZM608.708 2.7H637.808V38.1H608.708V2.7ZM676.109 2.7H719.309L792.209 120.3C800.809 134.3 808.309 147.6 814.709 160.2C813.909 146 813.509 130.7 813.509 114.3V2.7H853.409V219H810.209L737.309 102C728.709 87.8 721.209 74.5 714.809 62.1C715.809 76.1 716.309 91.4 716.309 108V219H676.109V2.7ZM886.613 2.7H1030.01V38.1H926.813V87H1009.61V122.1H926.813V183.6H1033.31V219H886.613V2.7ZM1054.93 2.7H1198.33V38.1H1095.13V87H1177.93V122.1H1095.13V183.6H1201.63V219H1054.93V2.7ZM1223.25 2.7H1316.25C1330.45 2.7 1342.75 5.29999 1353.15 10.5C1363.75 15.7 1371.85 23.2 1377.45 33C1383.25 42.8 1386.15 54.4 1386.15 67.8C1386.15 75.6 1384.85 83 1382.25 90C1379.65 97 1375.85 103.4 1370.85 109.2C1366.05 114.8 1360.25 119.3 1353.45 122.7C1360.65 126.1 1366.25 130.7 1370.25 136.5C1374.25 142.3 1377.25 149.9 1379.25 159.3L1386.45 193.5C1386.65 194.3 1386.75 195.1 1386.75 195.9C1387.75 200.5 1388.95 204.8 1390.35 208.8C1391.95 212.8 1393.55 216.2 1395.15 219H1351.65C1350.25 216.6 1348.95 213.8 1347.75 210.6C1346.75 207.2 1345.95 203.8 1345.35 200.4L1339.65 167.1C1338.25 158.9 1335.65 152.3 1331.85 147.3C1328.25 142.1 1323.05 138.3 1316.25 135.9C1309.65 133.5 1301.25 132.3 1291.05 132.3H1263.45V219H1223.25V2.7ZM1310.55 97.2C1317.75 97.2 1323.95 96 1329.15 93.6C1334.35 91.2 1338.25 87.8 1340.85 83.4C1343.65 79 1345.05 73.8 1345.05 67.8C1345.05 58.4 1341.95 51.1 1335.75 45.9C1329.75 40.7 1321.35 38.1 1310.55 38.1H1263.45V97.2H1310.55Z" fill="#171717"/>
</svg>
